<?xml version="1.0" standalone="no"?>
<!DOCTYPE svg PUBLIC "-//W3C//DTD SVG 20010904//EN"
 "http://www.w3.org/TR/2001/REC-SVG-20010904/DTD/svg10.dtd">
<svg version="1.0" xmlns="http://www.w3.org/2000/svg"
 width="500.000000pt" height="500.000000pt" viewBox="0 0 500.000000 500.000000"
 preserveAspectRatio="xMidYMid meet">

<g transform="translate(0.000000,500.000000) scale(0.100000,-0.100000)"
fill="#000000" stroke="none">
<path d="M2340 4444 c-383 -31 -776 -190 -1075 -434 -135 -110 -292 -286 -385
-430 -157 -243 -238 -440 -296 -720 -27 -127 -29 -149 -28 -375 0 -222 2 -250
28 -375 67 -327 202 -615 406 -865 269 -329 610 -547 1023 -654 172 -45 264
-55 477 -55 184 0 219 3 340 28 418 85 757 269 1040 562 264 274 435 597 517
979 26 124 28 143 28 395 0 251 -2 272 -28 392 -109 509 -397 941 -817 1225
-220 149 -485 255 -755 303 -115 20 -366 33 -475 24z m388 -129 c377 -49 732
-222 1011 -490 260 -250 438 -564 521 -915 132 -563 -8 -1147 -381 -1595 -174
-208 -368 -363 -594 -474 -280 -138 -506 -191 -814 -191 -360 0 -688 101 -992
306 -367 247 -616 596 -748 1049 -91 312 -80 741 26 1055 124 366 380 713 689
936 163 118 478 260 654 295 198 39 443 49 628 24z"/>
<path d="M2296 4250 c-598 -75 -1102 -439 -1376 -995 -114 -229 -168 -445
-177 -706 -3 -100 -1 -203 6 -262 11 -97 75 -365 90 -380 10 -10 22 5 56 71
l27 52 -21 93 c-35 151 -44 249 -38 421 9 314 97 586 277 854 206 309 475 525
800 645 212 78 366 102 607 94 246 -8 413 -48 622 -148 323 -153 598 -424 751
-738 34 -69 65 -133 69 -141 6 -11 28 -16 75 -18 l66 -3 -21 58 c-12 32 -44
100 -71 152 -184 354 -433 602 -773 771 -264 131 -455 179 -730 185 -93 2
-201 0 -239 -5z"/>
<path d="M2425 3920 c-3 -5 -12 -40 -20 -76 -15 -73 -24 -84 -72 -84 -28 0
-39 8 -74 55 -25 33 -49 55 -61 55 -20 0 -93 -34 -102 -48 -3 -5 2 -40 10 -78
7 -38 14 -70 14 -71 0 -1 -15 -14 -34 -28 l-33 -25 -59 35 c-32 19 -66 35 -75
35 -10 0 -32 -18 -49 -40 l-32 -41 29 -47 c16 -26 37 -58 46 -72 15 -24 15
-27 -5 -58 -16 -25 -26 -32 -42 -28 -12 2 -47 8 -79 11 l-57 7 -14 -34 c-34
-81 -34 -82 38 -128 63 -41 65 -43 68 -89 3 -45 4 -46 38 -49 l36 -3 13 76
c23 141 81 246 187 344 117 107 239 154 399 154 127 0 206 -23 314 -92 138
-87 224 -218 260 -396 l16 -80 35 0 c35 0 35 0 32 43 l-2 42 70 46 c38 25 70
51 70 58 0 21 -22 80 -34 92 -8 8 -32 9 -81 3 -67 -8 -71 -7 -92 17 -31 33
-29 49 12 114 19 30 35 60 35 68 0 18 -52 82 -66 82 -7 0 -38 -13 -69 -30 -67
-35 -71 -36 -111 -11 l-32 19 14 64 c20 96 20 96 -42 125 -63 28 -52 33 -115
-54 -31 -45 -54 -52 -101 -34 -19 7 -26 21 -37 72 -7 35 -17 70 -23 77 -12 14
-114 17 -123 2z"/>
<path d="M2466 3578 c-3 -7 -7 -38 -11 -69 l-6 -57 -46 -11 c-107 -27 -203
-105 -253 -204 -40 -80 -40 -107 0 -107 22 0 30 5 30 18 1 30 37 98 73 139 39
43 125 90 172 95 l30 3 5 -130 5 -130 25 0 25 0 3 125 c1 68 6 128 11 133 12
12 114 -30 164 -68 41 -32 87 -105 111 -177 7 -22 45 -24 53 -2 18 47 -68 193
-143 243 -27 17 -81 42 -121 54 l-72 22 -3 65 c-3 59 -5 65 -26 68 -12 2 -24
-3 -26 -10z"/>
<path d="M4106 2967 l-37 -67 16 -83 c23 -111 31 -408 15 -534 -66 -532 -426
-1038 -907 -1278 -197 -98 -366 -144 -610 -165 -311 -28 -671 65 -956 247
-176 112 -330 255 -458 426 -57 77 -149 219 -149 232 0 2 555 6 1232 8 1386 3
1302 -1 1467 80 230 113 334 340 244 534 -43 94 -122 143 -328 203 -156 46
-175 59 -175 116 0 45 29 74 78 75 20 1 115 4 210 8 l174 6 69 114 c38 63 69
118 69 123 0 6 -128 8 -303 6 l-302 -3 -67 -33 c-76 -37 -120 -83 -157 -162
-22 -46 -26 -69 -26 -145 0 -108 21 -161 90 -223 58 -54 98 -74 267 -128 79
-25 153 -56 166 -67 29 -27 28 -61 -4 -86 -24 -19 -40 -21 -184 -21 -146 0
-159 2 -185 22 -23 18 -29 19 -35 7 -5 -8 -46 -77 -92 -154 -82 -137 -84 -140
-121 -143 l-37 -3 0 483 0 483 50 84 c28 46 50 86 50 88 0 1 -87 3 -194 3
l-194 0 -32 -36 -31 -36 21 -23 c11 -12 25 -37 30 -56 6 -20 10 -209 10 -448
l0 -414 -36 -64 c-33 -60 -38 -64 -67 -61 l-32 3 -3 97 -3 97 -32 6 c-18 4
-111 5 -207 3 l-175 -3 -3 103 -3 102 131 0 132 0 29 -29 c16 -16 29 -36 29
-45 0 -8 4 -18 10 -21 7 -4 10 68 10 209 0 137 -4 216 -10 216 -5 0 -10 -9
-10 -19 0 -10 -9 -29 -19 -42 -18 -23 -26 -24 -160 -27 l-142 -4 3 114 3 113
208 3 207 2 0 130 0 130 -279 0 c-326 0 -307 6 -368 -117 l-37 -75 2 -457 c2
-252 0 -465 -4 -474 -5 -15 -26 -17 -170 -17 -90 0 -164 3 -164 8 0 4 23 18
50 31 67 32 143 116 167 183 11 35 17 80 17 130 -1 66 -6 87 -33 142 -51 105
-111 144 -315 207 -136 42 -186 74 -186 119 0 53 25 60 207 60 189 0 167 -11
262 128 34 50 69 96 77 102 8 7 14 17 14 22 0 6 -113 8 -292 6 -285 -3 -294
-4 -338 -27 -202 -105 -250 -380 -91 -524 53 -48 92 -67 244 -117 156 -52 191
-73 195 -119 3 -24 -3 -40 -19 -57 -22 -24 -26 -24 -195 -24 -180 0 -209 5
-245 41 -19 19 -24 20 -31 8 -5 -8 -65 -106 -133 -218 -69 -113 -125 -211
-125 -218 0 -7 10 -13 23 -13 18 0 29 -14 56 -65 143 -282 393 -554 661 -717
327 -199 727 -284 1106 -233 427 56 779 241 1073 565 217 238 355 513 427 847
26 119 28 144 28 358 0 215 -2 238 -28 350 -16 66 -33 133 -40 149 l-12 30
-38 -67z"/>
<path d="M2080 1651 c-12 -23 -14 -238 -2 -245 5 -3 98 3 208 14 109 11 266
25 348 33 148 14 150 14 178 46 25 28 28 39 28 101 l0 70 -375 0 c-360 0 -375
-1 -385 -19z"/>
<path d="M2807 1419 c-26 -15 -106 -26 -367 -49 -397 -34 -370 -25 -370 -126
0 -76 -18 -71 195 -49 77 8 219 22 315 31 96 9 190 22 208 30 40 16 65 69 60
127 -4 44 -13 52 -41 36z"/>
<path d="M2780 1190 c-14 -5 -95 -16 -180 -24 -383 -38 -466 -47 -488 -56 -21
-9 -22 -11 -8 -38 19 -38 79 -90 112 -98 27 -7 285 10 414 27 117 16 145 26
179 64 26 30 31 44 31 85 0 54 -7 58 -60 40z"/>
<path d="M2427 921 c-37 -3 -68 -10 -70 -16 -1 -5 14 -18 33 -28 49 -25 131
-19 165 13 45 42 35 45 -128 31z"/>
</g>
</svg>
